<svg xmlns="http://www.w3.org/2000/svg" width="1200" height="520" viewBox="0 0 1200 520">
  <defs>
    <linearGradient id="bg" x1="0" y1="0" x2="1" y2="1">
      <stop offset="0" stop-color="#0e2a2f" stop-opacity="0.95"/>
      <stop offset="0.55" stop-color="#0b1f24" stop-opacity="0.95"/>
      <stop offset="1" stop-color="#0b0b10" stop-opacity="0.98"/>
    </linearGradient>
    <linearGradient id="grid" x1="0" y1="0" x2="0" y2="1">
      <stop offset="0" stop-color="#7dd3fc" stop-opacity="0.28"/>
      <stop offset="1" stop-color="#a855f7" stop-opacity="0.12"/>
    </linearGradient>
  </defs>
  <rect width="1200" height="520" fill="url(#bg)"/>

  <g stroke="url(#grid)" stroke-width="2" opacity="0.45" fill="none">
    <path d="M60 120 C240 60, 380 180, 560 120 S860 120, 1140 80"/>
    <path d="M80 260 C260 210, 420 300, 620 240 S900 220, 1120 260"/>
    <path d="M60 390 C260 340, 460 420, 660 380 S940 350, 1140 420"/>
  </g>

  <g stroke="rgba(255,255,255,0.10)" stroke-width="1" opacity="0.55">
    <path d="M0 70 H1200"/>
    <path d="M0 150 H1200"/>
    <path d="M0 230 H1200"/>
    <path d="M0 310 H1200"/>
    <path d="M0 390 H1200"/>
    <path d="M0 470 H1200"/>
    <path d="M120 0 V520"/>
    <path d="M260 0 V520"/>
    <path d="M420 0 V520"/>
    <path d="M560 0 V520"/>
    <path d="M720 0 V520"/>
    <path d="M880 0 V520"/>
    <path d="M1040 0 V520"/>
  </g>

  <g opacity="0.9">
    <circle cx="780" cy="240" r="10" fill="rgba(168,85,247,0.8)"/>
    <circle cx="780" cy="240" r="22" fill="rgba(168,85,247,0.12)"/>
    <circle cx="780" cy="240" r="40" fill="rgba(168,85,247,0.06)"/>
  </g>
</svg>

